<?xml version="1.0" encoding="iso-8859-1"?>
<!-- Generator: Adobe Illustrator 19.0.0, SVG Export Plug-In . SVG Version: 6.00 Build 0)  -->
<svg version="1.1" id="Layer_1" xmlns="http://www.w3.org/2000/svg" xmlns:xlink="http://www.w3.org/1999/xlink" x="0px" y="0px"
	 viewBox="0 0 512 512" style="enable-background:new 0 0 512 512;" xml:space="preserve">
<rect x="9.745" y="256.845" style="fill:#92DEEB;" width="55.304" height="252.698"/>
<rect x="65.048" y="129.357" style="fill:#F77B55;" width="55.299" height="380.16"/>
<rect x="120.344" y="200.704" style="fill:#FFFFFF;" width="55.311" height="308.838"/>
<rect x="175.666" y="392.806" style="fill:#FDCA5C;" width="55.301" height="116.718"/>
<path style="fill:#F77B55;" d="M467.731,330.194c-21.284,21.289-50.708,34.419-83.174,34.419
	c-64.929,0-117.596-52.664-117.596-117.599c0-49.009,29.988-91.059,72.609-108.682l44.984,108.682L467.731,330.194z"/>
<path style="fill:#92DEEB;" d="M502.191,247.002H384.567V129.382C449.527,129.382,502.191,182.047,502.191,247.002z"/>
<path style="fill:#FFFFFF;" d="M502.191,247.002c0,32.476-13.158,61.873-34.442,83.169l-83.182-83.169L502.191,247.002
	L502.191,247.002z"/>
<path style="fill:#FDCA5C;" d="M384.557,129.37v117.647l-44.984-108.682C353.425,132.562,368.636,129.37,384.557,129.37z"/>
<rect x="9.745" y="181.069" style="fill:#92DEEB;" width="55.304" height="23.493"/>
<rect x="120.344" y="134.144" style="fill:#FFFFFF;" width="55.306" height="23.493"/>
<g>
	<rect x="175.64" y="326.272" style="fill:#FDCA5C;" width="55.306" height="23.496"/>
	<rect x="175.64" y="47.035" style="fill:#FDCA5C;" width="55.306" height="23.491"/>
</g>
<g>
	<rect x="65.043" y="2.46" style="fill:#F77B55;" width="55.304" height="23.496"/>
	<path style="fill:#F77B55;" d="M357.114,474.081c0,19.581-15.867,35.456-35.451,35.456c-19.587,0-35.456-15.872-35.456-35.456
		c0-19.584,15.867-35.456,35.456-35.456C341.247,438.628,357.114,454.5,357.114,474.081z"/>
</g>
<circle style="fill:#92DEEB;" cx="451.045" cy="411.11" r="18.284"/>
<g>
	<path style="fill:#232E38;" d="M65.048,512H9.745c-1.359,0-2.46-1.103-2.46-2.463v-252.7c0-1.362,1.101-2.465,2.46-2.465h55.304
		c1.362,0,2.46,1.103,2.46,2.465v252.7C67.511,510.897,66.41,512,65.048,512z M12.207,507.077h50.378V259.3H12.207V507.077z"/>
	<path style="fill:#232E38;" d="M120.347,512H65.048c-1.362,0-2.463-1.103-2.463-2.463V129.37c0-1.362,1.101-2.465,2.463-2.465
		h55.299c1.362,0,2.46,1.103,2.46,2.465v380.168C122.807,510.897,121.706,512,120.347,512z M67.511,507.077h50.373V131.832H67.511
		V507.077z"/>
	<path style="fill:#232E38;" d="M175.658,512h-55.311c-1.362,0-2.463-1.103-2.463-2.463V200.712c0-1.359,1.101-2.463,2.463-2.463
		h55.311c1.362,0,2.46,1.103,2.46,2.463v308.826C178.118,510.897,177.018,512,175.658,512z M122.807,507.077h50.388v-303.9h-50.388
		V507.077z"/>
	<path style="fill:#232E38;" d="M230.957,512h-55.299c-1.362,0-2.463-1.103-2.463-2.463V392.819c0-1.357,1.101-2.463,2.463-2.463
		h55.301c1.362,0,2.46,1.106,2.46,2.463v116.718C233.42,510.897,232.319,512,230.957,512z M178.118,507.077h50.378V395.284h-50.378
		V507.077z"/>
	<path style="fill:#232E38;" d="M384.557,367.076c-66.202,0-120.056-53.86-120.056-120.059c0-48.781,29.094-92.334,74.125-110.961
		c1.262-0.515,2.701,0.079,3.223,1.334l44.797,108.229l82.829,82.831c0.963,0.963,0.963,2.522,0,3.484
		C446.813,354.598,416.662,367.076,384.557,367.076z M338.246,141.573c-41.897,18.365-68.823,59.482-68.823,105.441
		c0,63.485,51.645,115.136,115.133,115.136c29.965,0,58.161-11.336,79.677-31.974l-81.416-81.421
		c-0.233-0.225-0.412-0.499-0.538-0.799L338.246,141.573z"/>
	<path style="fill:#232E38;" d="M502.248,249.464c-0.013,0.003-0.036,0.005-0.056,0H384.567c-1.357,0-2.46-1.103-2.46-2.463V129.382
		c0-1.359,1.103-2.463,2.46-2.463c66.04,0,119.798,53.576,120.087,119.544c0.038,0.172,0.061,0.351,0.061,0.538
		C504.716,248.361,503.612,249.464,502.248,249.464z M387.03,244.539h112.673c-1.298-61.55-51.116-111.373-112.673-112.668V244.539z
		"/>
	<path style="fill:#232E38;" d="M467.749,332.634c-0.65,0-1.28-0.261-1.738-0.719l-83.18-83.167
		c-0.707-0.707-0.917-1.766-0.54-2.685c0.384-0.919,1.28-1.521,2.276-1.521h117.624c1.362,0,2.463,1.103,2.463,2.46
		c0,32.067-12.485,62.221-35.162,84.91C469.027,332.372,468.404,332.634,467.749,332.634z M390.517,249.464l77.215,77.204
		c20.086-20.951,31.37-48.192,31.974-77.204L390.517,249.464L390.517,249.464z"/>
	<path style="fill:#232E38;" d="M384.557,249.48c-0.98,0-1.889-0.586-2.276-1.523l-44.987-108.682
		c-0.52-1.257,0.074-2.693,1.326-3.218c14.584-6.072,30.039-9.155,45.937-9.155c1.365,0,2.463,1.103,2.463,2.465v117.647
		c0,1.172-0.827,2.186-1.981,2.414C384.879,249.464,384.713,249.48,384.557,249.48z M342.796,139.686l39.299,94.94V131.855
		C368.541,132.142,355.345,134.771,342.796,139.686z"/>
	<path style="fill:#232E38;" d="M65.048,207.022H9.745c-1.359,0-2.46-1.103-2.46-2.465v-23.493c0-1.359,1.101-2.463,2.46-2.463
		h55.304c1.362,0,2.46,1.103,2.46,2.463v23.493C67.511,205.919,66.41,207.022,65.048,207.022z M12.207,202.094h50.378v-18.568
		H12.207V202.094z"/>
	<path style="fill:#232E38;" d="M175.658,160.09h-55.306c-1.362,0-2.46-1.103-2.46-2.463v-23.493c0-1.359,1.101-2.463,2.46-2.463
		h55.306c1.362,0,2.46,1.103,2.46,2.463v23.493C178.118,158.986,177.018,160.09,175.658,160.09z M122.815,155.162h50.381v-18.565
		h-50.381V155.162z"/>
	<path style="fill:#232E38;" d="M230.957,352.238h-55.306c-1.359,0-2.46-1.106-2.46-2.463V326.28c0-1.359,1.101-2.465,2.46-2.465
		h55.306c1.362,0,2.46,1.106,2.46,2.465v23.496C233.42,351.132,232.319,352.238,230.957,352.238z M178.113,347.31h50.383v-18.565
		h-50.383V347.31z"/>
	<path style="fill:#232E38;" d="M230.957,72.991h-55.306c-1.359,0-2.46-1.103-2.46-2.465V47.035c0-1.362,1.101-2.465,2.46-2.465
		h55.306c1.362,0,2.46,1.103,2.46,2.465v23.491C233.42,71.887,232.319,72.991,230.957,72.991z M178.113,68.065h50.383V49.498
		h-50.383V68.065z"/>
	<path style="fill:#232E38;" d="M120.347,28.419H65.043c-1.362,0-2.46-1.103-2.46-2.463V2.46c0-1.357,1.101-2.46,2.46-2.46h55.304
		c1.362,0,2.46,1.103,2.46,2.46v23.496C122.807,27.315,121.706,28.419,120.347,28.419z M67.506,23.493h50.378V4.925H67.506V23.493z"
		/>
	<path style="fill:#232E38;" d="M321.663,512c-20.91,0-37.919-17.011-37.919-37.919c0-20.913,17.009-37.921,37.919-37.921
		c20.905,0,37.914,17.009,37.914,37.921C359.576,494.989,342.568,512,321.663,512z M321.663,441.088
		c-18.194,0-32.993,14.799-32.993,32.996c0,18.191,14.797,32.996,32.993,32.996c18.189,0,32.988-14.802,32.988-32.996
		C354.651,455.887,339.854,441.088,321.663,441.088z"/>
	<path style="fill:#232E38;" d="M451.048,431.852c-11.438,0-20.744-9.308-20.744-20.746s9.306-20.746,20.744-20.746
		s20.746,9.308,20.746,20.746S462.486,431.852,451.048,431.852z M451.048,395.284c-8.722,0-15.821,7.096-15.821,15.821
		c0,8.724,7.096,15.826,15.821,15.826c8.719,0,15.823-7.099,15.823-15.826C466.871,402.383,459.77,395.284,451.048,395.284z"/>
</g>
<g>
</g>
<g>
</g>
<g>
</g>
<g>
</g>
<g>
</g>
<g>
</g>
<g>
</g>
<g>
</g>
<g>
</g>
<g>
</g>
<g>
</g>
<g>
</g>
<g>
</g>
<g>
</g>
<g>
</g>
</svg>
